<svg width="40" height="40" viewBox="0 0 40 40" fill="none" xmlns="http://www.w3.org/2000/svg">
<path d="M27 24.4817L15.5183 12.9983C14.7483 12.2283 14.3633 11.8433 13.8883 11.7217C13.7135 11.6749 13.5322 11.6569 13.3516 11.6683C12.8616 11.695 12.4083 11.9967 11.5016 12.6017L11.27 12.7567C9.43165 13.9817 8.51331 14.5933 8.36831 15.32C8.28998 15.71 8.34498 16.115 8.52165 16.47C8.85498 17.1333 9.90165 17.4817 11.9966 18.1817C12.67 18.405 13.0066 18.5183 13.2633 18.7317C13.4078 18.8494 13.5305 18.9883 13.6316 19.1483C13.8116 19.43 13.8816 19.7767 14.02 20.4733L14.47 22.7233C14.6966 23.8567 14.81 24.4233 15.1933 24.8067C15.5766 25.19 16.1433 25.3033 17.2766 25.53L19.5266 25.98C20.2233 26.1183 20.57 26.1883 20.8533 26.3683C21.0111 26.4683 21.15 26.5906 21.27 26.735C21.4816 26.9933 21.595 27.33 21.82 28.0033C22.5166 30.0983 22.8666 31.1467 23.5283 31.4783C23.885 31.655 24.29 31.71 24.6783 31.6317C25.405 31.4867 26.0183 30.5683 27.245 28.73L27.3983 28.4967C28.0033 27.5917 28.305 27.1367 28.3316 26.6467C28.3428 26.4672 28.3247 26.2871 28.2783 26.1133C28.1566 25.6367 27.7716 25.2517 27.0016 24.48L27 24.4817Z" stroke="#7ED957" stroke-width="1.5"/>
<path d="M22.4999 30L19.5433 33.0933C17.1599 35.4766 15.9666 36.6666 14.4883 36.6666C13.0099 36.6666 11.8166 35.475 9.43492 33.0933L6.90659 30.565C4.52325 28.1833 3.33325 26.9916 3.33325 25.5116C3.33325 24.0316 4.52492 22.84 6.90659 20.4566L9.99992 17.5M14.9999 12.8466L21.0766 6.76998C23.3666 4.47831 24.5133 3.33331 25.9383 3.33331C27.3616 3.33331 28.5066 4.47831 30.7983 6.76998L33.2299 9.20165C35.5216 11.4933 36.6666 12.6383 36.6666 14.0616C36.6666 15.485 35.5216 16.6316 33.2299 18.9233L27.1533 25" stroke="#F7670F" stroke-width="1.5"/>
<path d="M32.6667 7.33329L20.6667 19.3333M20 6.66663L33.3333 20" stroke="#F7670F" stroke-width="1.5" stroke-linejoin="round"/>
</svg>
