<svg width="40" height="40" viewBox="0 0 40 40" fill="none" xmlns="http://www.w3.org/2000/svg">
<path d="M11.6667 35H28.3333M20 35C23.9782 35 27.7936 33.4196 30.6066 30.6066C33.4196 27.7936 35 23.9782 35 20H5C5 23.9782 6.58035 27.7936 9.3934 30.6066C12.2064 33.4196 16.0218 35 20 35Z" stroke="#F7670F" stroke-width="2" stroke-linecap="round" stroke-linejoin="round"/>
<path d="M18.9667 20C17.9573 20.0094 16.9817 19.6368 16.2355 18.957C15.4893 18.2771 15.0278 17.3403 14.9434 16.3344C14.8591 15.3285 15.1582 14.3279 15.7807 13.5333C16.4032 12.7387 17.3032 12.2088 18.3001 12.05C18.1405 11.3437 18.1756 10.6073 18.4016 9.91944C18.6277 9.23154 19.0363 8.61791 19.5838 8.144C20.1312 7.6701 20.7971 7.35369 21.5103 7.22853C22.2235 7.10337 22.9573 7.17415 23.6334 7.43332C23.9295 6.96726 24.3188 6.56754 24.7769 6.25932C25.235 5.9511 25.752 5.74107 26.2952 5.64243C26.8385 5.5438 27.3963 5.55871 27.9335 5.68622C28.4707 5.81373 28.9757 6.05108 29.4167 6.38332C30.186 5.7787 31.1502 5.477 32.1269 5.53531C33.1036 5.59363 34.0251 6.00791 34.7169 6.69977C35.4088 7.39164 35.8231 8.3131 35.8814 9.2898C35.9397 10.2665 35.638 11.2307 35.0334 12C35.4097 12.4999 35.6635 13.0811 35.7744 13.6969C35.8853 14.3127 35.8502 14.9459 35.6719 15.5457C35.4936 16.1454 35.1771 16.695 34.7478 17.1502C34.3185 17.6054 33.7884 17.9536 33.2001 18.1667C33.3527 18.7665 33.3698 19.3927 33.2501 20M21.6667 20L28.3334 13.3333" stroke="#7ED957" stroke-width="2" stroke-linecap="round" stroke-linejoin="round"/>
<path d="M18.1666 12.0833C17.2524 11.1088 16.0658 10.4322 14.7615 10.1419C13.4573 9.85152 12.0957 9.96081 10.8545 10.4555C9.61321 10.9502 8.54976 11.8074 7.80275 12.9153C7.05574 14.0232 6.65982 15.3305 6.66659 16.6667C6.66659 17.8833 6.99992 19.0167 7.56659 20" stroke="#F7670F" stroke-width="2" stroke-linecap="round" stroke-linejoin="round"/>
</svg>
