<svg width="40" height="40" viewBox="0 0 40 40" fill="none" xmlns="http://www.w3.org/2000/svg">
<path d="M7.35323 28.3572H34.816M16.2537 22.9926L13.7619 3.69966C13.7442 3.547 13.7559 3.39221 13.7962 3.24428C13.8366 3.09636 13.9049 2.95824 13.9971 2.83797C14.0893 2.71769 14.2036 2.61765 14.3334 2.54367C14.4632 2.46968 14.6058 2.42322 14.753 2.407L18.1736 1.96072C18.4712 1.91705 18.7733 1.99714 19.0144 2.18357C19.2554 2.37 19.4159 2.64772 19.461 2.95638L22.1631 23.8482M8.14727 14.5088L6.95028 9.13037C6.88743 8.85431 6.92535 8.56386 7.05669 8.31515C7.18803 8.06644 7.40347 7.87714 7.66136 7.78385L13.9737 5.38166M25 23.0788L27.5051 3.69966C27.5237 3.54687 27.5126 3.39177 27.4725 3.2435C27.4325 3.09523 27.3643 2.95678 27.2719 2.83632C27.1795 2.71586 27.0649 2.61582 26.9348 2.54208C26.8046 2.46835 26.6616 2.42242 26.5141 2.407L23.0949 1.96072C22.7971 1.91661 22.4946 1.99649 22.2532 2.18297C22.0118 2.36944 21.8511 2.64741 21.8061 2.95638L20.6402 12.025M33.1212 14.5072L34.3168 9.13037C34.3796 8.85431 34.3417 8.56386 34.2104 8.31515C34.079 8.06644 33.8636 7.87714 33.6057 7.78385L27.2889 5.38166" stroke="#7ED957" stroke-width="2" stroke-linecap="round" stroke-linejoin="round"/>
<path d="M37.4839 14.9626C37.3687 14.8183 37.2242 14.7022 37.0609 14.6224C36.8975 14.5426 36.7193 14.5011 36.5388 14.501H32.0471C31.7771 14.4969 31.5146 14.5931 31.3068 14.7723C31.099 14.9514 30.9596 15.2017 30.9138 15.4782C30.4837 17.9263 29.217 20.1307 27.3468 21.6858C25.4765 23.241 23.1286 24.0422 20.7349 23.942C18.3414 24.0418 15.9938 23.2404 14.1239 21.6853C12.2539 20.1302 10.9875 17.926 10.5574 15.4782C10.5101 15.2022 10.3702 14.9525 10.1624 14.7736C9.95462 14.5947 9.69251 14.4981 9.42265 14.501H5.63018C5.44968 14.5011 5.27142 14.5426 5.10808 14.6224C4.94473 14.7022 4.80029 14.8183 4.68503 14.9626C4.57185 15.1031 4.49154 15.2688 4.45041 15.4469C4.40929 15.625 4.40846 15.8106 4.448 15.9891L8.75601 34.3295C8.82019 34.6044 8.97247 34.8484 9.18784 35.0216C9.40322 35.1947 9.66887 35.2865 9.94115 35.282H32.2308C32.5031 35.2865 32.7687 35.1947 32.9841 35.0216C33.1995 34.8484 33.3517 34.6044 33.4159 34.3295L37.7254 15.9891C37.7632 15.8102 37.7611 15.6247 37.7192 15.4468C37.6774 15.2689 37.5969 15.1033 37.4839 14.9626Z" stroke="#F7670F" stroke-width="2" stroke-linecap="round" stroke-linejoin="round"/>
</svg>
