<svg width="40" height="40" viewBox="0 0 40 40" fill="none" xmlns="http://www.w3.org/2000/svg">
<path d="M21.7585 8.92127C21.9233 8.92127 22.0813 8.85582 22.1978 8.73931C22.3143 8.6228 22.3798 8.46478 22.3798 8.30002C22.3798 8.13525 22.3143 7.97724 22.1978 7.86073C22.0813 7.74422 21.9233 7.67877 21.7585 7.67877C21.5938 7.67877 21.4357 7.74422 21.3192 7.86073C21.2027 7.97724 21.1373 8.13525 21.1373 8.30002C21.1373 8.46478 21.2027 8.6228 21.3192 8.73931C21.4357 8.85582 21.5938 8.92127 21.7585 8.92127ZM7.57478 14.435C7.57478 14.5166 7.55871 14.5974 7.52749 14.6728C7.49626 14.7481 7.4505 14.8166 7.39282 14.8743C7.33513 14.932 7.26664 14.9778 7.19127 15.009C7.11589 15.0402 7.03511 15.0563 6.95353 15.0563C6.87194 15.0563 6.79116 15.0402 6.71578 15.009C6.64041 14.9778 6.57192 14.932 6.51424 14.8743C6.45655 14.8166 6.41079 14.7481 6.37957 14.6728C6.34834 14.5974 6.33228 14.5166 6.33228 14.435C6.33228 14.2703 6.39773 14.1122 6.51424 13.9957C6.63074 13.8792 6.78876 13.8138 6.95353 13.8138C7.11829 13.8138 7.27631 13.8792 7.39282 13.9957C7.50932 14.1122 7.57478 14.2703 7.57478 14.435ZM16.2448 23.1175C16.2448 23.2823 16.1793 23.4403 16.0628 23.5568C15.9463 23.6733 15.7883 23.7388 15.6235 23.7388C15.4588 23.7388 15.3007 23.6733 15.1842 23.5568C15.0677 23.4403 15.0023 23.2823 15.0023 23.1175C15.0094 22.9577 15.078 22.8069 15.1936 22.6963C15.3092 22.5858 15.463 22.5241 15.6229 22.5241C15.7828 22.5241 15.9366 22.5858 16.0522 22.6963C16.1678 22.8069 16.2364 22.9577 16.2435 23.1175M14.2073 9.28127C14.2073 9.44604 14.1418 9.60405 14.0253 9.72056C13.9088 9.83707 13.7508 9.90252 13.586 9.90252C13.4213 9.90252 13.2632 9.83707 13.1467 9.72056C13.0302 9.60405 12.9648 9.44604 12.9648 9.28127C12.9648 9.1165 13.0302 8.95849 13.1467 8.84198C13.2632 8.72547 13.4213 8.66002 13.586 8.66002C13.7508 8.66002 13.9088 8.72547 14.0253 8.84198C14.1418 8.95849 14.2073 9.1165 14.2073 9.28127ZM17.6723 20.2238C17.837 20.2238 17.9951 20.1583 18.1116 20.0418C18.2281 19.9253 18.2935 19.7673 18.2935 19.6025C18.2935 19.4378 18.2281 19.2797 18.1116 19.1632C17.9951 19.0467 17.837 18.9813 17.6723 18.9813C17.5075 18.9813 17.3495 19.0467 17.233 19.1632C17.1165 19.2797 17.051 19.4378 17.051 19.6025C17.051 19.7673 17.1165 19.9253 17.233 20.0418C17.3495 20.1583 17.5075 20.2238 17.6723 20.2238ZM11.0773 16.485C11.0773 16.5666 11.0612 16.6474 11.03 16.7228C10.9988 16.7981 10.953 16.8666 10.8953 16.9243C10.8376 16.982 10.7691 17.0278 10.6938 17.059C10.6184 17.0902 10.5376 17.1063 10.456 17.1063C10.3744 17.1063 10.2937 17.0902 10.2183 17.059C10.1429 17.0278 10.0744 16.982 10.0167 16.9243C9.95905 16.8666 9.91329 16.7981 9.88207 16.7228C9.85084 16.6474 9.83478 16.5666 9.83478 16.485C9.83478 16.3203 9.90023 16.1622 10.0167 16.0457C10.1332 15.9292 10.2913 15.8638 10.456 15.8638C10.6208 15.8638 10.7788 15.9292 10.8953 16.0457C11.0118 16.1622 11.0773 16.3203 11.0773 16.485ZM20.7898 13.02C20.9545 13.02 21.1126 12.9546 21.2291 12.8381C21.3456 12.7216 21.411 12.5635 21.411 12.3988C21.411 12.234 21.3456 12.076 21.2291 11.9595C21.1126 11.843 20.9545 11.7775 20.7898 11.7775C20.63 11.7847 20.4791 11.8532 20.3686 11.9688C20.2581 12.0844 20.1964 12.2382 20.1964 12.3981C20.1964 12.5581 20.2581 12.7119 20.3686 12.8275C20.4791 12.9431 20.63 13.0116 20.7898 13.0188M15.6235 6.38752C15.7883 6.38752 15.9463 6.32207 16.0628 6.20556C16.1793 6.08905 16.2448 5.93103 16.2448 5.76627C16.2448 5.6015 16.1793 5.44349 16.0628 5.32698C15.9463 5.21047 15.7883 5.14502 15.6235 5.14502C15.4588 5.14502 15.3007 5.21047 15.1842 5.32698C15.0677 5.44349 15.0023 5.6015 15.0023 5.76627C15.0023 5.93103 15.0677 6.08905 15.1842 6.20556C15.3007 6.32207 15.4588 6.38752 15.6235 6.38752ZM9.48728 8.92127C9.65204 8.92127 9.81006 8.85582 9.92657 8.73931C10.0431 8.6228 10.1085 8.46478 10.1085 8.30002C10.1085 8.13525 10.0431 7.97724 9.92657 7.86073C9.81006 7.74422 9.65204 7.67877 9.48728 7.67877C9.32251 7.67877 9.16449 7.74422 9.04799 7.86073C8.93148 7.97724 8.86603 8.13525 8.86603 8.30002C8.86603 8.46478 8.93148 8.6228 9.04799 8.73931C9.16449 8.85582 9.32251 8.92127 9.48728 8.92127ZM22.3798 20.5713C22.3798 20.736 22.3143 20.8941 22.1978 21.0106C22.0813 21.1271 21.9233 21.1925 21.7585 21.1925C21.5938 21.1925 21.4357 21.1271 21.3192 21.0106C21.2027 20.8941 21.1373 20.736 21.1373 20.5713C21.1373 20.4065 21.2027 20.2485 21.3192 20.132C21.4357 20.0155 21.5938 19.95 21.7585 19.95C21.9233 19.95 22.0813 20.0155 22.1978 20.132C22.3143 20.2485 22.3798 20.4065 22.3798 20.5713ZM24.3048 15.0563C24.4695 15.0563 24.6276 14.9908 24.7441 14.8743C24.8606 14.7578 24.926 14.5998 24.926 14.435C24.926 14.2703 24.8606 14.1122 24.7441 13.9957C24.6276 13.8792 24.4695 13.8138 24.3048 13.8138C24.14 13.8138 23.982 13.8792 23.8655 13.9957C23.749 14.1122 23.6835 14.2703 23.6835 14.435C23.6835 14.5998 23.749 14.7578 23.8655 14.8743C23.982 14.9908 24.14 15.0563 24.3048 15.0563ZM10.1085 20.5713C10.1085 20.6529 10.0925 20.7336 10.0612 20.809C10.03 20.8844 9.98425 20.9529 9.92657 21.0106C9.86888 21.0682 9.80039 21.114 9.72502 21.1452C9.64964 21.1765 9.56886 21.1925 9.48728 21.1925C9.40569 21.1925 9.32491 21.1765 9.24953 21.1452C9.17416 21.114 9.10567 21.0682 9.04799 21.0106C8.9903 20.9529 8.94454 20.8844 8.91332 20.809C8.88209 20.7336 8.86603 20.6529 8.86603 20.5713C8.86603 20.4065 8.93148 20.2485 9.04799 20.132C9.16449 20.0155 9.32251 19.95 9.48728 19.95C9.65204 19.95 9.81006 20.0155 9.92657 20.132C10.0431 20.2485 10.1085 20.4065 10.1085 20.5713ZM10.531 12.8575C10.6149 12.8613 10.6986 12.848 10.7772 12.8185C10.8558 12.789 10.9275 12.7439 10.9882 12.6859C11.0489 12.6279 11.0972 12.5582 11.1301 12.4811C11.1631 12.4039 11.1801 12.3208 11.1801 12.2369C11.1801 12.153 11.1631 12.0699 11.1301 11.9927C11.0972 11.9156 11.0489 11.8459 10.9882 11.7879C10.9275 11.7299 10.8558 11.6848 10.7772 11.6553C10.6986 11.6258 10.6149 11.6125 10.531 11.6163C10.3712 11.6234 10.2204 11.692 10.1099 11.8076C9.99932 11.9232 9.93764 12.077 9.93764 12.2369C9.93764 12.3968 9.99932 12.5506 10.1099 12.6662C10.2204 12.7818 10.3712 12.8503 10.531 12.8575ZM21.3498 16.6463C21.3498 16.811 21.2843 16.9691 21.1678 17.0856C21.0513 17.2021 20.8933 17.2675 20.7285 17.2675C20.5638 17.2675 20.4057 17.2021 20.2892 17.0856C20.1727 16.9691 20.1073 16.811 20.1073 16.6463C20.1144 16.4865 20.183 16.3356 20.2986 16.2251C20.4142 16.1146 20.568 16.0529 20.7279 16.0529C20.8878 16.0529 21.0416 16.1146 21.1572 16.2251C21.2728 16.3356 21.3426 16.4865 21.3498 16.6463ZM13.4123 20.1613C13.577 20.1613 13.7351 20.0958 13.8516 19.9793C13.9681 19.8628 14.0335 19.7048 14.0335 19.54C14.0335 19.3753 13.9681 19.2172 13.8516 19.1007C13.7351 18.9842 13.577 18.9188 13.4123 18.9188C13.2475 18.9188 13.0895 18.9842 12.973 19.1007C12.8565 19.2172 12.791 19.3753 12.791 19.54C12.791 19.7048 12.8565 19.8628 12.973 19.9793C13.0895 20.0958 13.2475 20.1613 13.4123 20.1613ZM18.4548 9.34252C18.4585 9.42636 18.4453 9.5101 18.4158 9.58868C18.3863 9.66726 18.3412 9.73904 18.2832 9.79971C18.2252 9.86037 18.1555 9.90865 18.0783 9.94164C18.0011 9.97462 17.9181 9.99163 17.8342 9.99163C17.7502 9.99163 17.6672 9.97462 17.59 9.94164C17.5128 9.90865 17.4431 9.86037 17.3851 9.79971C17.3271 9.73904 17.282 9.66726 17.2525 9.58868C17.223 9.5101 17.2098 9.42636 17.2135 9.34252C17.2207 9.18274 17.2892 9.03188 17.4048 8.92135C17.5204 8.81082 17.6742 8.74913 17.8342 8.74913C17.9941 8.74913 18.1479 8.81082 18.2635 8.92135C18.3791 9.03188 18.4476 9.18274 18.4548 9.34252ZM15.1135 17.4538H16.3685C16.7634 17.4544 17.1546 17.3771 17.5196 17.2263C17.8845 17.0754 18.2161 16.854 18.4953 16.5747C18.7745 16.2953 18.9958 15.9637 19.1465 15.5986C19.2972 15.2336 19.3743 14.8424 19.3735 14.4475C19.3729 13.6507 19.0561 12.8868 18.4927 12.3234C17.9292 11.76 17.1653 11.4432 16.3685 11.4425H15.1123C14.3156 11.4435 13.5518 11.7604 12.9885 12.3238C12.4252 12.8871 12.1083 13.6508 12.1073 14.4475C12.1079 15.2444 12.4247 16.0085 12.9881 16.5721C13.5514 17.1357 14.3166 17.4528 15.1135 17.4538Z" fill="#7ED957"/>
<path d="M10.0124 2.54749C16.4886 -0.580006 24.3024 2.14124 27.4411 8.59749L27.5074 8.73749C28.4449 8.87499 29.3349 9.26624 30.0774 9.87874L30.0811 9.88124L31.7336 11.2262C31.8161 11.2925 31.9024 11.3525 32.0186 11.435L33.8024 12.5787C34.9114 13.2934 35.7124 14.3976 36.0474 15.6737V15.6775L36.5974 17.7587C36.619 17.8462 36.6499 17.9454 36.6899 18.0562L37.4274 19.9425H37.4899V20.105C37.9372 21.3105 37.9332 22.6372 37.4786 23.84V26.54H37.4511C37.0111 33.345 31.3424 38.75 24.4174 38.75H24.2799C17.4224 38.75 11.7749 33.4387 11.2574 26.7C8.14474 25.6176 5.55749 23.3965 4.01613 20.4837L4.01488 20.48C3.9364 20.3406 3.86465 20.1975 3.79988 20.0512C0.66738 13.5725 3.39113 5.76999 9.84613 2.61874L9.88738 2.59749L10.0124 2.54749ZM26.9574 20.9225C27.3045 21.2038 27.5844 21.5591 27.7767 21.9624C27.969 22.3658 28.0687 22.8069 28.0686 23.2537C28.0695 23.6488 27.9923 24.0401 27.8415 24.4052C27.6907 24.7703 27.4693 25.102 27.19 25.3813C26.9106 25.6606 26.5789 25.882 26.2138 26.0328C25.8487 26.1836 25.4574 26.2608 25.0624 26.26H23.8086C23.1897 26.2602 22.5859 26.069 22.0799 25.7125C21.8582 25.8358 21.6331 25.9529 21.4049 26.0637L21.2736 26.13C19.1906 27.1424 16.875 27.58 14.5661 27.3975L14.6236 27.6137C14.7911 28.2662 15.2149 28.8512 15.8036 29.2325L15.8049 29.2337L17.6236 30.4L17.6536 30.4212C17.7724 30.505 17.9249 30.6112 18.0811 30.7362L18.0886 30.7425L19.7599 32.1012C20.2986 32.5462 20.9811 32.7675 21.6699 32.725H21.6749L23.8086 32.6C24.0193 32.5866 24.2305 32.5866 24.4411 32.6L26.5699 32.725C27.268 32.7564 27.9536 32.5324 28.4986 32.095L30.1686 30.7362C30.3236 30.6112 30.4761 30.505 30.5936 30.4237L30.6261 30.4L32.4449 29.2337H32.4461C33.0261 28.8575 33.4474 28.275 33.6299 27.6012V27.5987L34.1736 25.5375C34.2174 25.3662 34.2736 25.1962 34.3136 25.0825L34.3349 25.02L34.3449 24.9887L35.1374 22.965C35.386 22.315 35.386 21.5962 35.1374 20.9462L34.3499 18.9375L34.3461 18.925C34.2802 18.744 34.2226 18.5601 34.1736 18.3737L33.6261 16.2987C33.4483 15.6306 33.0275 15.0529 32.4461 14.6787L32.4449 14.6775L30.6261 13.5112L30.5949 13.49C30.4774 13.4062 30.3249 13.3 30.1699 13.1762L30.1611 13.17L28.5186 11.8325C29.1143 14.9513 28.5592 18.1804 26.9561 20.9212M25.1911 9.68874C22.6499 4.46249 16.3061 2.26249 11.0661 4.81499L11.0249 4.83499L10.9024 4.88499C5.69863 7.45249 3.51863 13.7662 6.06488 18.9925L6.08488 19.0337L6.10238 19.0762C6.11738 19.115 6.13988 19.16 6.20863 19.2812L6.21488 19.2937L6.22113 19.305C8.86238 24.31 15.0474 26.3662 20.1761 23.8837L20.3061 23.8187C25.5461 21.2762 27.7361 14.9337 25.1936 9.68999" fill="#F7670F"/>
</svg>
