<svg width="40" height="40" viewBox="0 0 40 40" fill="none" xmlns="http://www.w3.org/2000/svg">
<path d="M5.8999 21.2584L8.33324 36.6667H31.6666L34.0966 21.2717M15.8332 36.6667L14.4199 23.2367M24.1666 36.6667L25.5699 23.3334" stroke="#F7670F" stroke-width="1.5"/>
<path d="M11.5867 20.6917C10.968 21.2216 10.2291 21.5923 9.43443 21.7716C8.63976 21.9508 7.81332 21.9332 7.02701 21.7202C6.2407 21.5072 5.51834 21.1053 4.92278 20.5495C4.32721 19.9937 3.87647 19.3008 3.60977 18.531C3.34307 17.7613 3.26849 16.938 3.39252 16.1329C3.51655 15.3277 3.83543 14.5651 4.32142 13.9113C4.8074 13.2575 5.44578 12.7323 6.18102 12.3815C6.91625 12.0307 7.72607 11.8648 8.54002 11.8983C9.10718 9.28022 10.5536 6.93521 12.6388 5.25341C14.7239 3.57161 17.322 2.65442 20.0009 2.65442C22.6797 2.65442 25.2778 3.57161 27.3629 5.25341C29.4481 6.93521 30.8945 9.28022 31.4617 11.8983C31.5284 11.895 31.5967 11.8933 31.6667 11.8933C32.4727 11.8933 33.2668 12.0881 33.9812 12.4612C34.6957 12.8343 35.3094 13.3746 35.77 14.036C36.2306 14.6974 36.5245 15.4604 36.6266 16.2599C36.7287 17.0594 36.636 17.8718 36.3564 18.6277C36.0768 19.3837 35.6186 20.0608 35.0209 20.6015C34.4231 21.1422 33.7035 21.5303 32.9234 21.7329C32.1432 21.9354 31.3257 21.9464 30.5404 21.7648C29.7551 21.5832 29.0254 21.2145 28.4134 20.69C28.0527 21.4565 27.5032 22.1187 26.8164 22.6147C26.1296 23.1106 25.3282 23.4239 24.4871 23.5252C23.6461 23.6265 22.7932 23.5124 22.0083 23.1938C21.2234 22.8751 20.5324 22.3623 20 21.7033C19.4678 22.3623 18.7769 22.8753 17.9921 23.1941C17.2073 23.5128 16.3544 23.627 15.5134 23.5259C14.6724 23.4248 13.8708 23.1117 13.184 22.6159C12.4972 22.1202 11.9475 21.458 11.5867 20.6917Z" stroke="#7ED957" stroke-width="1.5"/>
</svg>
