<svg width="40" height="40" viewBox="0 0 40 40" fill="none" xmlns="http://www.w3.org/2000/svg">
<path d="M28.1309 10.4225C28.9023 10.2214 29.6819 10.0529 30.4675 9.91751C30.9546 9.83458 31.4545 9.86929 31.9255 10.0187C32.3965 10.1682 32.8249 10.4281 33.175 10.7767C34.92 12.5008 37.9975 16.4667 37.9975 23C37.9975 29.1858 37.7259 32.9267 37.4925 34.9975C37.3434 36.3225 36.3117 37.295 34.9842 37.4242C32.4759 37.6692 27.7425 37.9992 20.4875 37.9992C13.2375 37.9992 8.51421 37.6692 6.00921 37.4242C4.68337 37.295 3.65171 36.3233 3.50254 34.9992C3.28337 33.0508 3.02921 29.6233 3.00004 24.0692C2.99671 23.375 3.19921 22.6908 3.67254 22.1825C6.44171 19.2167 12.7784 15.9642 18.8617 13.5325" stroke="#F7670F" stroke-width="2" stroke-linecap="round" stroke-linejoin="round"/>
<path d="M28.8308 13C28.8308 13.6566 28.7015 14.3068 28.4502 14.9134C28.1989 15.52 27.8306 16.0712 27.3663 16.5355C26.9021 16.9998 26.3509 17.3681 25.7442 17.6194C25.1376 17.8707 24.4874 18 23.8308 18C23.1742 18 22.524 17.8707 21.9174 17.6194C21.3108 17.3681 20.7596 16.9998 20.2953 16.5355C19.831 16.0712 19.4627 15.52 19.2114 14.9134C18.9601 14.3068 18.8308 13.6566 18.8308 13C18.8308 11.6739 19.3576 10.4021 20.2953 9.46447C21.233 8.52678 22.5047 8 23.8308 8C25.1569 8 26.4287 8.52678 27.3663 9.46447C28.304 10.4021 28.8308 11.6739 28.8308 13Z" stroke="#7ED957" stroke-width="2" stroke-linecap="round" stroke-linejoin="round"/>
<path d="M23.8308 8C23.8308 5.23833 21.7891 3 18.8308 3M37.1641 30.5H3.83081M37.9975 23H3.83081" stroke="#F7670F" stroke-width="2" stroke-linecap="round" stroke-linejoin="round"/>
</svg>
