<svg width="40" height="40" viewBox="0 0 40 40" fill="none" xmlns="http://www.w3.org/2000/svg">
<path d="M30.3037 6.80997C30.5937 6.50997 31.0287 6.61122 31.4012 6.90997C32.0195 7.51971 32.6275 8.13979 33.225 8.76997C33.6162 9.20497 33.355 9.51747 33.1387 9.77497L33.1137 9.80497C32.895 10.0687 31.8412 11.105 31.6 11.335C31.3575 11.5662 30.93 11.6225 30.6 11.28C29.9549 10.6239 29.3069 9.97055 28.6562 9.31997C28.3275 8.98997 28.58 8.59372 28.7987 8.31872C28.9737 8.09747 29.875 7.22122 30.3037 6.80997ZM28.9125 15.2887C29.3537 14.9512 29.7225 15.1275 30.0675 15.4337C30.4362 15.7962 31.2625 16.6 31.6 16.905C31.9375 17.2112 31.7512 17.5162 31.5112 17.7812C31.3112 18.0037 30.61 18.5012 30.0237 18.9162L29.6987 19.1487C29.0812 19.5912 28.6 19.2612 28.3675 19.1C28.135 18.94 26.9637 17.7812 26.7387 17.5162C26.5137 17.2512 26.7475 16.8975 26.9637 16.7287C27.0712 16.645 27.2437 16.5312 27.4262 16.4112C27.6112 16.29 27.805 16.1612 27.9512 16.0525C28.0887 15.9487 28.2137 15.8475 28.355 15.7312C28.5087 15.6062 28.6825 15.465 28.9125 15.2887ZM23.1 8.76997C22.7587 8.39497 22.45 8.14247 22.0562 8.55997C21.66 8.97872 20.8262 10.0912 20.6287 10.4325C20.43 10.7737 20.2537 11.3575 20.6287 11.71C20.8037 11.8762 21.0725 12.1662 21.3362 12.4512C21.63 12.77 21.9162 13.08 22.0562 13.1962L22.1275 13.2575C22.3787 13.475 22.69 13.7437 23 13.2625C23.34 12.7337 23.9662 11.775 24.2412 11.4887C24.5162 11.2025 24.9212 10.62 24.5262 10.2237L24.2137 9.91122C23.8325 9.53497 23.37 9.07372 23.1 8.76997ZM12.1962 23.8875C11.755 24.225 11.385 24.0475 11.0412 23.7425C10.6712 23.38 9.84624 22.5762 9.50874 22.2712C9.17124 21.965 9.35624 21.6587 9.59624 21.395C9.79874 21.1725 10.4987 20.675 11.0837 20.26L11.4087 20.0275C12.0275 19.585 12.5087 19.915 12.7412 20.0762C12.9737 20.2362 14.145 21.395 14.3687 21.66C14.5925 21.925 14.3612 22.2787 14.1437 22.4475C13.993 22.5582 13.8388 22.6641 13.6812 22.765C13.5033 22.8796 13.3287 22.9992 13.1575 23.1237C13.02 23.2275 12.895 23.3287 12.7537 23.4437C12.6 23.5687 12.4262 23.7112 12.1962 23.8875ZM10.2162 32.7762C9.92624 33.0762 9.49124 32.975 9.11749 32.6762C8.49962 32.0665 7.89203 31.4464 7.29499 30.8162C6.90374 30.3812 7.16499 30.0687 7.37999 29.8112L7.40499 29.7812C7.62499 29.5175 8.67874 28.4812 8.91999 28.2512C9.16249 28.02 9.58999 27.9637 9.91999 28.3062C10.2487 28.6462 11.5262 29.9287 11.8612 30.2637L11.8625 30.265C12.1925 30.5962 11.94 30.9925 11.7212 31.2675C11.545 31.4887 10.645 32.365 10.2162 32.7762ZM17.5525 30.3325C17.8925 30.7075 18.2 30.96 18.595 30.5412C18.99 30.1225 19.825 29.0112 20.0225 28.67C20.22 28.3287 20.3962 27.745 20.0225 27.3925C19.8475 27.2262 19.5775 26.935 19.315 26.6512C19.0212 26.3325 18.735 26.0225 18.595 25.9062L18.5237 25.8437C18.2712 25.6262 17.9612 25.3575 17.65 25.84C17.31 26.3675 16.685 27.3262 16.41 27.6125C16.135 27.8987 15.7287 28.4825 16.1237 28.8787L16.4362 29.1887L16.4375 29.19C16.8175 29.5675 17.2837 30.0275 17.5525 30.3325ZM20.8125 22.14C20.5175 22.4375 20 22.36 19.6162 21.9975L19.2912 21.6725C18.8269 21.2135 18.3677 20.7493 17.9137 20.28C17.475 19.8175 17.815 19.3875 18.0787 19.09C18.6313 18.5102 19.1951 17.9414 19.77 17.3837C20.0887 17.075 20.55 17.1962 20.9225 17.505C21.215 17.745 21.8737 18.455 22.3375 18.955L22.6687 19.31C23.065 19.7287 22.735 20.235 22.505 20.455C22.2737 20.6762 21.1087 21.8425 20.8125 22.14Z" fill="#7ED957"/>
<path d="M30.5112 1.69122C25.7487 0.472474 22.4774 1.97622 20.2612 3.75372C17.7449 5.77247 16.4674 8.58247 16.2637 10.9387C16.0937 12.8987 15.8049 13.8837 15.0049 14.7512C14.5487 15.245 14.1974 15.5337 13.7112 15.7425C13.1962 15.9637 12.4349 16.135 11.1099 16.2062C9.44117 16.2962 7.77117 16.9562 6.38742 17.8525C5.00992 18.7437 3.79617 19.945 3.12242 21.245L2.90617 21.6575C2.45117 22.5237 1.98992 23.4025 1.67992 24.3675C1.30367 25.5362 1.14867 26.8125 1.31742 28.4675C1.65742 31.7675 3.15617 34.26 4.45617 35.6625L4.48867 35.6975L4.52367 35.73C4.99367 36.165 5.74742 36.705 6.59367 37.1887C7.43992 37.6725 8.46242 38.145 9.47617 38.385C11.7912 38.9362 16.0037 39.2 19.3387 36.6162C22.5174 34.1537 23.6762 31.2987 23.8812 28.9312C23.9699 27.9125 24.0512 27.2937 24.1962 26.8012C24.3287 26.3575 24.5237 25.99 24.9087 25.5337C25.6537 24.6512 26.8899 23.91 28.5999 23.8375C30.9849 23.735 34.7624 22.47 37.0449 18.6375C39.2924 14.8662 38.9399 10.925 38.1249 8.78122C37.3674 6.78872 35.4037 2.94372 30.5112 1.69122ZM21.8262 5.70372C23.5637 4.30997 26.0437 3.12872 29.8912 4.11372C33.6074 5.06372 35.1387 7.96122 35.7874 9.66872C36.3787 11.2225 36.6912 14.3462 34.8974 17.3575C33.1399 20.3075 30.2374 21.265 28.4937 21.34C26.0737 21.4425 24.1862 22.5137 22.9987 23.9212C22.4174 24.6087 22.0424 25.2775 21.7999 26.0887C21.5737 26.8537 21.4787 27.7087 21.3912 28.715C21.2449 30.4 20.4262 32.6112 17.8074 34.64C15.3449 36.5487 12.0562 36.4287 10.0549 35.9525C9.35492 35.7875 8.56242 35.4337 7.83242 35.0175C7.12742 34.615 6.55742 34.1987 6.25742 33.9275C5.27742 32.855 4.07867 30.8687 3.80492 28.2112C3.66742 26.8712 3.79867 25.945 4.05992 25.1325C4.29742 24.3887 4.64742 23.7212 5.10992 22.84L5.33992 22.3975C5.76492 21.5825 6.62492 20.6762 7.74617 19.9512C8.86117 19.2287 10.1149 18.7637 11.2449 18.7025C12.6999 18.6237 13.7949 18.4275 14.6987 18.0387C15.6337 17.6375 16.2637 17.0725 16.8424 16.4462C18.2274 14.945 18.5724 13.2475 18.7549 11.155C18.9012 9.45997 19.8549 7.28372 21.8262 5.70372Z" fill="#F7670F"/>
</svg>
