<svg width="40" height="40" viewBox="0 0 40 40" fill="none" xmlns="http://www.w3.org/2000/svg">
<path d="M3.94992 18.705L17.9033 7.41001C18.4966 6.92994 19.2367 6.66803 19.9999 6.66803C20.7631 6.66803 21.5033 6.92994 22.0966 7.41001L36.0483 18.705M34.9999 25C35.4419 25 35.8659 25.1756 36.1784 25.4882C36.491 25.8007 36.6666 26.2247 36.6666 26.6667V30C36.6666 30.442 36.491 30.866 36.1784 31.1785C35.8659 31.4911 35.4419 31.6667 34.9999 31.6667H26.2499M4.99992 25C4.55789 25 4.13397 25.1756 3.82141 25.4882C3.50885 25.8007 3.33325 26.2247 3.33325 26.6667V30C3.33325 30.442 3.50885 30.866 3.82141 31.1785C4.13397 31.4911 4.55789 31.6667 4.99992 31.6667H19.9999" stroke="#F7670F" stroke-width="2" stroke-linecap="round" stroke-linejoin="round"/>
<path d="M11.1167 25L21.3334 32.6667C21.6836 32.9293 22.0821 33.1204 22.5061 33.229C22.9301 33.3377 23.3714 33.3617 23.8048 33.2998C24.2381 33.2379 24.655 33.0913 25.0317 32.8682C25.4083 32.6452 25.7374 32.3502 26 32L31.25 25" stroke="#7ED957" stroke-width="2" stroke-linecap="round" stroke-linejoin="round"/>
<path d="M34.9999 18.3334H4.99992C4.07944 18.3334 3.33325 19.0796 3.33325 20V23.3334C3.33325 24.2538 4.07944 25 4.99992 25H34.9999C35.9204 25 36.6666 24.2538 36.6666 23.3334V20C36.6666 19.0796 35.9204 18.3334 34.9999 18.3334Z" stroke="#F7670F" stroke-width="2" stroke-linecap="round" stroke-linejoin="round"/>
</svg>
