<svg width="40" height="40" viewBox="0 0 40 40" fill="none" xmlns="http://www.w3.org/2000/svg">
<path d="M11.0533 30.4383L8.38499 10.1666C8.18333 8.64665 8.52666 8.33331 10.21 8.33331H28.125C29.8083 8.33331 30.1483 8.64665 29.9483 10.1666L27.28 30.4383C26.9167 33.1966 26.735 34.5766 25.69 35.405C23.5283 37.1233 14.7117 37.05 12.6433 35.405C11.5983 34.5766 11.4167 33.1966 11.0533 30.4383Z" stroke="#F7670F" stroke-width="2" stroke-linecap="round" stroke-linejoin="round"/>
<path d="M22.5 31.6666L23.2433 4.90165C23.2684 4.47746 23.4546 4.07886 23.7637 3.78735C24.0729 3.49584 24.4817 3.33342 24.9067 3.33331H31.6683" stroke="#7ED957" stroke-width="2" stroke-linecap="round"/>
<path d="M10 16.6667C10.3033 16.1117 11.3033 15 13.4833 15C16.2117 15 15.4917 16.6667 17.31 16.6667C19.1283 16.6667 21.8567 15 24.5833 15C27.31 15 29.1667 16.6667 29.1667 16.6667" stroke="#F7670F" stroke-width="2" stroke-linecap="round"/>
<path d="M16.681 26.6666H16.6667" stroke="#FF8A80" stroke-width="2" stroke-linecap="round" stroke-linejoin="round"/>
</svg>
